<mxfile host="app.diagrams.net" agent="Mozilla/5.0 (Windows NT 10.0; Win64; x64) AppleWebKit/537.36 (KHTML, like Gecko) Chrome/135.0.0.0 Safari/537.36" version="26.2.10">
  <diagram name="Page-1" id="c4acf3e9-155e-7222-9cf6-157b1a14988f">
    <mxGraphModel dx="2242" dy="1813" grid="1" gridSize="10" guides="1" tooltips="1" connect="1" arrows="1" fold="1" page="1" pageScale="1" pageWidth="850" pageHeight="1100" background="none" math="0" shadow="0">
      <root>
        <mxCell id="0" />
        <mxCell id="1" parent="0" />
        <mxCell id="17acba5748e5396b-1" value="frame" style="shape=umlFrame;whiteSpace=wrap;html=1;rounded=0;shadow=1;comic=0;labelBackgroundColor=none;strokeWidth=1;fontFamily=Verdana;fontSize=10;align=center;" parent="1" vertex="1">
          <mxGeometry x="-70" y="-40" width="1110" height="940" as="geometry" />
        </mxCell>
        <mxCell id="5d2195bd80daf111-40" style="edgeStyle=orthogonalEdgeStyle;rounded=0;html=1;dashed=1;labelBackgroundColor=none;startFill=0;endArrow=open;endFill=0;endSize=10;fontFamily=Verdana;fontSize=10;" parent="1" edge="1">
          <mxGeometry relative="1" as="geometry">
            <Array as="points" />
            <mxPoint x="730" y="814" as="sourcePoint" />
            <mxPoint x="730" y="837.9999999999995" as="targetPoint" />
          </mxGeometry>
        </mxCell>
        <mxCell id="17acba5748e5396b-20" value="UploadedFile" style="swimlane;html=1;fontStyle=0;childLayout=stackLayout;horizontal=1;startSize=26;fillColor=none;horizontalStack=0;resizeParent=1;resizeLast=0;collapsible=1;marginBottom=0;swimlaneFillColor=#ffffff;rounded=0;shadow=0;comic=0;labelBackgroundColor=none;strokeWidth=1;fontFamily=Verdana;fontSize=10;align=center;" parent="1" vertex="1">
          <mxGeometry x="285" y="-10" width="160" height="180" as="geometry" />
        </mxCell>
        <mxCell id="17acba5748e5396b-21" value="+ id : UUID&lt;div&gt;+ fileName : String&lt;/div&gt;&lt;div&gt;+ fileType : FileType&lt;/div&gt;&lt;div&gt;+&amp;nbsp;fileSizeInBytes : Long&lt;/div&gt;&lt;div&gt;+ s3Key : String&lt;/div&gt;&lt;div&gt;+ upLoadedBy: User&lt;/div&gt;&lt;div&gt;+ upLoadedAt : Date&lt;/div&gt;&lt;div&gt;&lt;br&gt;&lt;/div&gt;&lt;div&gt;&lt;br&gt;&lt;/div&gt;" style="text;html=1;strokeColor=none;fillColor=none;align=left;verticalAlign=top;spacingLeft=4;spacingRight=4;whiteSpace=wrap;overflow=hidden;rotatable=0;points=[[0,0.5],[1,0.5]];portConstraint=eastwest;" parent="17acba5748e5396b-20" vertex="1">
          <mxGeometry y="26" width="160" height="114" as="geometry" />
        </mxCell>
        <mxCell id="17acba5748e5396b-30" value="Document" style="swimlane;html=1;fontStyle=0;childLayout=stackLayout;horizontal=1;startSize=26;fillColor=none;horizontalStack=0;resizeParent=1;resizeLast=0;collapsible=1;marginBottom=0;swimlaneFillColor=#ffffff;rounded=0;shadow=0;comic=0;labelBackgroundColor=none;strokeWidth=1;fontFamily=Verdana;fontSize=10;align=center;" parent="1" vertex="1">
          <mxGeometry x="590" y="-10" width="190" height="210" as="geometry" />
        </mxCell>
        <mxCell id="17acba5748e5396b-31" value="+ id : UUID&lt;div&gt;+ sourceFile : UploadedFile&lt;/div&gt;&lt;div&gt;+ summary : Summary&lt;/div&gt;&lt;div&gt;+ extractedText : String&lt;/div&gt;&lt;div&gt;+qaList : List&amp;lt;QuestionAnswers&amp;gt;&lt;/div&gt;&lt;div&gt;+ highlights : List&amp;lt;HighLights&amp;gt;&lt;/div&gt;&lt;div&gt;+ proccessAt : Date&lt;/div&gt;" style="text;html=1;strokeColor=none;fillColor=none;align=left;verticalAlign=top;spacingLeft=4;spacingRight=4;whiteSpace=wrap;overflow=hidden;rotatable=0;points=[[0,0.5],[1,0.5]];portConstraint=eastwest;" parent="17acba5748e5396b-30" vertex="1">
          <mxGeometry y="26" width="190" height="184" as="geometry" />
        </mxCell>
        <mxCell id="P6yEo5nzX-D7H8GDg3fG-7" value="Summary" style="swimlane;html=1;fontStyle=0;childLayout=stackLayout;horizontal=1;startSize=26;fillColor=none;horizontalStack=0;resizeParent=1;resizeLast=0;collapsible=1;marginBottom=0;swimlaneFillColor=#ffffff;rounded=0;shadow=0;comic=0;labelBackgroundColor=none;strokeWidth=1;fontFamily=Verdana;fontSize=10;align=center;" vertex="1" parent="1">
          <mxGeometry x="285" y="260" width="190" height="160" as="geometry" />
        </mxCell>
        <mxCell id="P6yEo5nzX-D7H8GDg3fG-8" value="+ id : UUID&lt;div&gt;+ content : String&lt;br&gt;&lt;div&gt;+ summaryType : SummaryType&lt;br&gt;+ summaryLength : SummaryLength&lt;/div&gt;&lt;div&gt;&lt;br&gt;&lt;/div&gt;&lt;/div&gt;" style="text;html=1;strokeColor=none;fillColor=none;align=left;verticalAlign=top;spacingLeft=4;spacingRight=4;whiteSpace=wrap;overflow=hidden;rotatable=0;points=[[0,0.5],[1,0.5]];portConstraint=eastwest;" vertex="1" parent="P6yEo5nzX-D7H8GDg3fG-7">
          <mxGeometry y="26" width="190" height="134" as="geometry" />
        </mxCell>
        <mxCell id="P6yEo5nzX-D7H8GDg3fG-9" value="QuestionAndAnswer" style="swimlane;html=1;fontStyle=0;childLayout=stackLayout;horizontal=1;startSize=26;fillColor=none;horizontalStack=0;resizeParent=1;resizeLast=0;collapsible=1;marginBottom=0;swimlaneFillColor=#ffffff;rounded=0;shadow=0;comic=0;labelBackgroundColor=none;strokeWidth=1;fontFamily=Verdana;fontSize=10;align=center;" vertex="1" parent="1">
          <mxGeometry x="630" y="260" width="190" height="120" as="geometry" />
        </mxCell>
        <mxCell id="P6yEo5nzX-D7H8GDg3fG-10" value="+ id : UUID&lt;div&gt;+&amp;nbsp;&lt;span style=&quot;background-color: transparent; color: light-dark(rgb(0, 0, 0), rgb(255, 255, 255));&quot;&gt;question : String&lt;/span&gt;&lt;/div&gt;&lt;div&gt;+ answers : List&amp;lt;Answer&amp;gt;&lt;/div&gt;" style="text;html=1;strokeColor=none;fillColor=none;align=left;verticalAlign=top;spacingLeft=4;spacingRight=4;whiteSpace=wrap;overflow=hidden;rotatable=0;points=[[0,0.5],[1,0.5]];portConstraint=eastwest;" vertex="1" parent="P6yEo5nzX-D7H8GDg3fG-9">
          <mxGeometry y="26" width="190" height="94" as="geometry" />
        </mxCell>
        <mxCell id="P6yEo5nzX-D7H8GDg3fG-11" value="Answer" style="swimlane;html=1;fontStyle=0;childLayout=stackLayout;horizontal=1;startSize=26;fillColor=none;horizontalStack=0;resizeParent=1;resizeLast=0;collapsible=1;marginBottom=0;swimlaneFillColor=#ffffff;rounded=0;shadow=0;comic=0;labelBackgroundColor=none;strokeWidth=1;fontFamily=Verdana;fontSize=10;align=center;" vertex="1" parent="1">
          <mxGeometry x="700" y="470" width="190" height="120" as="geometry" />
        </mxCell>
        <mxCell id="P6yEo5nzX-D7H8GDg3fG-12" value="+ id : UUID&lt;div&gt;+ answer : String&lt;/div&gt;" style="text;html=1;strokeColor=none;fillColor=none;align=left;verticalAlign=top;spacingLeft=4;spacingRight=4;whiteSpace=wrap;overflow=hidden;rotatable=0;points=[[0,0.5],[1,0.5]];portConstraint=eastwest;" vertex="1" parent="P6yEo5nzX-D7H8GDg3fG-11">
          <mxGeometry y="26" width="190" height="54" as="geometry" />
        </mxCell>
        <mxCell id="P6yEo5nzX-D7H8GDg3fG-16" value="User" style="swimlane;html=1;fontStyle=0;childLayout=stackLayout;horizontal=1;startSize=26;fillColor=none;horizontalStack=0;resizeParent=1;resizeLast=0;collapsible=1;marginBottom=0;swimlaneFillColor=#ffffff;rounded=0;shadow=0;comic=0;labelBackgroundColor=none;strokeWidth=1;fontFamily=Verdana;fontSize=10;align=center;" vertex="1" parent="1">
          <mxGeometry x="-40" y="460" width="190" height="160" as="geometry" />
        </mxCell>
        <mxCell id="P6yEo5nzX-D7H8GDg3fG-17" value="+ id : UUID&lt;div&gt;+ userName : name&lt;/div&gt;&lt;div&gt;+ emailId : String&amp;nbsp;&lt;/div&gt;&lt;div&gt;+ password : String&lt;/div&gt;&lt;div&gt;+ role : Role&lt;/div&gt;" style="text;html=1;strokeColor=none;fillColor=none;align=left;verticalAlign=top;spacingLeft=4;spacingRight=4;whiteSpace=wrap;overflow=hidden;rotatable=0;points=[[0,0.5],[1,0.5]];portConstraint=eastwest;" vertex="1" parent="P6yEo5nzX-D7H8GDg3fG-16">
          <mxGeometry y="26" width="190" height="134" as="geometry" />
        </mxCell>
        <mxCell id="P6yEo5nzX-D7H8GDg3fG-18" value="&lt;div&gt;&amp;lt;&amp;lt;Enumeration&amp;gt;&amp;gt;&lt;/div&gt;FileType" style="swimlane;html=1;fontStyle=0;childLayout=stackLayout;horizontal=1;startSize=26;fillColor=none;horizontalStack=0;resizeParent=1;resizeLast=0;collapsible=1;marginBottom=0;swimlaneFillColor=#ffffff;rounded=0;shadow=0;comic=0;labelBackgroundColor=none;strokeWidth=1;fontFamily=Verdana;fontSize=10;align=center;" vertex="1" parent="1">
          <mxGeometry x="-15" y="10" width="140" height="140" as="geometry" />
        </mxCell>
        <mxCell id="P6yEo5nzX-D7H8GDg3fG-19" value="&amp;nbsp;PDF&lt;br&gt;DOCX" style="text;html=1;strokeColor=none;fillColor=none;align=left;verticalAlign=top;spacingLeft=4;spacingRight=4;whiteSpace=wrap;overflow=hidden;rotatable=0;points=[[0,0.5],[1,0.5]];portConstraint=eastwest;" vertex="1" parent="P6yEo5nzX-D7H8GDg3fG-18">
          <mxGeometry y="26" width="140" height="114" as="geometry" />
        </mxCell>
        <mxCell id="P6yEo5nzX-D7H8GDg3fG-24" value="&lt;div&gt;&amp;lt;&amp;lt;Enumeration&amp;gt;&amp;gt;&lt;/div&gt;SummaryType" style="swimlane;html=1;fontStyle=0;childLayout=stackLayout;horizontal=1;startSize=26;fillColor=none;horizontalStack=0;resizeParent=1;resizeLast=0;collapsible=1;marginBottom=0;swimlaneFillColor=#ffffff;rounded=0;shadow=0;comic=0;labelBackgroundColor=none;strokeWidth=1;fontFamily=Verdana;fontSize=10;align=center;" vertex="1" parent="1">
          <mxGeometry x="-15" y="260" width="140" height="140" as="geometry" />
        </mxCell>
        <mxCell id="P6yEo5nzX-D7H8GDg3fG-25" value="ABSTRACTIVE&lt;div&gt;EXTRACTIVE&lt;/div&gt;" style="text;html=1;strokeColor=none;fillColor=none;align=left;verticalAlign=top;spacingLeft=4;spacingRight=4;whiteSpace=wrap;overflow=hidden;rotatable=0;points=[[0,0.5],[1,0.5]];portConstraint=eastwest;" vertex="1" parent="P6yEo5nzX-D7H8GDg3fG-24">
          <mxGeometry y="26" width="140" height="114" as="geometry" />
        </mxCell>
        <mxCell id="P6yEo5nzX-D7H8GDg3fG-28" value="&lt;div&gt;&amp;lt;&amp;lt;Enumeration&amp;gt;&amp;gt;&lt;/div&gt;SummaryLength" style="swimlane;html=1;fontStyle=0;childLayout=stackLayout;horizontal=1;startSize=26;fillColor=none;horizontalStack=0;resizeParent=1;resizeLast=0;collapsible=1;marginBottom=0;swimlaneFillColor=#ffffff;rounded=0;shadow=0;comic=0;labelBackgroundColor=none;strokeWidth=1;fontFamily=Verdana;fontSize=10;align=center;" vertex="1" parent="1">
          <mxGeometry x="285" y="590" width="140" height="140" as="geometry" />
        </mxCell>
        <mxCell id="P6yEo5nzX-D7H8GDg3fG-29" value="SHORT&lt;div&gt;MEDIUM&lt;/div&gt;&lt;div&gt;LARGE&lt;/div&gt;" style="text;html=1;strokeColor=none;fillColor=none;align=left;verticalAlign=top;spacingLeft=4;spacingRight=4;whiteSpace=wrap;overflow=hidden;rotatable=0;points=[[0,0.5],[1,0.5]];portConstraint=eastwest;" vertex="1" parent="P6yEo5nzX-D7H8GDg3fG-28">
          <mxGeometry y="26" width="140" height="114" as="geometry" />
        </mxCell>
        <mxCell id="P6yEo5nzX-D7H8GDg3fG-37" value="" style="endArrow=block;endFill=1;html=1;edgeStyle=orthogonalEdgeStyle;align=left;verticalAlign=top;rounded=0;fontFamily=Verdana;fontSize=10;fontColor=default;labelBackgroundColor=none;" edge="1" parent="1">
          <mxGeometry x="-1" relative="1" as="geometry">
            <mxPoint x="125" y="329.44" as="sourcePoint" />
            <mxPoint x="285" y="329.44" as="targetPoint" />
            <Array as="points">
              <mxPoint x="125" y="329.44" />
            </Array>
          </mxGeometry>
        </mxCell>
        <mxCell id="P6yEo5nzX-D7H8GDg3fG-39" value="Association" style="edgeLabel;html=1;align=center;verticalAlign=middle;resizable=0;points=[];rounded=0;shadow=0;comic=0;strokeColor=default;strokeWidth=1;fontFamily=Verdana;fontSize=10;fontColor=default;labelBackgroundColor=none;fillColor=default;" vertex="1" connectable="0" parent="P6yEo5nzX-D7H8GDg3fG-37">
          <mxGeometry x="-0.0347" y="-2" relative="1" as="geometry">
            <mxPoint x="-1" y="9" as="offset" />
          </mxGeometry>
        </mxCell>
        <mxCell id="P6yEo5nzX-D7H8GDg3fG-40" value="" style="endArrow=block;endFill=1;html=1;edgeStyle=orthogonalEdgeStyle;align=left;verticalAlign=top;rounded=0;fontFamily=Verdana;fontSize=10;fontColor=default;labelBackgroundColor=none;exitX=0.5;exitY=0;exitDx=0;exitDy=0;" edge="1" parent="1" source="P6yEo5nzX-D7H8GDg3fG-28" target="P6yEo5nzX-D7H8GDg3fG-8">
          <mxGeometry x="-1" relative="1" as="geometry">
            <mxPoint x="360" y="496.6666666666679" as="sourcePoint" />
            <mxPoint x="200" y="496.6666666666679" as="targetPoint" />
            <Array as="points">
              <mxPoint x="360" y="570" />
              <mxPoint x="360" y="570" />
              <mxPoint x="360" y="500" />
              <mxPoint x="360" y="500" />
            </Array>
          </mxGeometry>
        </mxCell>
        <mxCell id="P6yEo5nzX-D7H8GDg3fG-41" value="Association" style="edgeLabel;html=1;align=center;verticalAlign=middle;resizable=0;points=[];rounded=0;shadow=0;comic=0;strokeColor=default;strokeWidth=1;fontFamily=Verdana;fontSize=10;fontColor=default;labelBackgroundColor=none;fillColor=default;" vertex="1" connectable="0" parent="P6yEo5nzX-D7H8GDg3fG-40">
          <mxGeometry x="-0.0347" y="-2" relative="1" as="geometry">
            <mxPoint x="28" y="9" as="offset" />
          </mxGeometry>
        </mxCell>
        <mxCell id="P6yEo5nzX-D7H8GDg3fG-42" value="" style="endArrow=block;endFill=1;html=1;edgeStyle=orthogonalEdgeStyle;align=left;verticalAlign=top;rounded=0;fontFamily=Verdana;fontSize=10;fontColor=default;labelBackgroundColor=none;" edge="1" parent="1">
          <mxGeometry x="-1" relative="1" as="geometry">
            <mxPoint x="125" y="79.44" as="sourcePoint" />
            <mxPoint x="285" y="79.44" as="targetPoint" />
            <Array as="points">
              <mxPoint x="125" y="79.44" />
            </Array>
          </mxGeometry>
        </mxCell>
        <mxCell id="P6yEo5nzX-D7H8GDg3fG-43" value="Association" style="edgeLabel;html=1;align=center;verticalAlign=middle;resizable=0;points=[];rounded=0;shadow=0;comic=0;strokeColor=default;strokeWidth=1;fontFamily=Verdana;fontSize=10;fontColor=default;labelBackgroundColor=none;fillColor=default;" vertex="1" connectable="0" parent="P6yEo5nzX-D7H8GDg3fG-42">
          <mxGeometry x="-0.0347" y="-2" relative="1" as="geometry">
            <mxPoint x="-1" y="9" as="offset" />
          </mxGeometry>
        </mxCell>
        <mxCell id="P6yEo5nzX-D7H8GDg3fG-44" value="&lt;div&gt;&amp;lt;&amp;lt;Enumeration&amp;gt;&amp;gt;&lt;/div&gt;Role" style="swimlane;html=1;fontStyle=0;childLayout=stackLayout;horizontal=1;startSize=26;fillColor=none;horizontalStack=0;resizeParent=1;resizeLast=0;collapsible=1;marginBottom=0;swimlaneFillColor=#ffffff;rounded=0;shadow=0;comic=0;labelBackgroundColor=none;strokeWidth=1;fontFamily=Verdana;fontSize=10;align=center;" vertex="1" parent="1">
          <mxGeometry x="-30" y="740" width="140" height="140" as="geometry" />
        </mxCell>
        <mxCell id="P6yEo5nzX-D7H8GDg3fG-45" value="ADMIN&lt;br&gt;USER" style="text;html=1;strokeColor=none;fillColor=none;align=left;verticalAlign=top;spacingLeft=4;spacingRight=4;whiteSpace=wrap;overflow=hidden;rotatable=0;points=[[0,0.5],[1,0.5]];portConstraint=eastwest;" vertex="1" parent="P6yEo5nzX-D7H8GDg3fG-44">
          <mxGeometry y="26" width="140" height="114" as="geometry" />
        </mxCell>
        <mxCell id="P6yEo5nzX-D7H8GDg3fG-48" value="" style="endArrow=block;endFill=1;html=1;edgeStyle=orthogonalEdgeStyle;align=left;verticalAlign=top;rounded=0;fontFamily=Verdana;fontSize=10;fontColor=default;labelBackgroundColor=none;" edge="1" parent="1">
          <mxGeometry x="-1" relative="1" as="geometry">
            <mxPoint x="40" y="740" as="sourcePoint" />
            <mxPoint x="40" y="620" as="targetPoint" />
            <Array as="points">
              <mxPoint x="40" y="730" />
              <mxPoint x="40" y="730" />
            </Array>
          </mxGeometry>
        </mxCell>
        <mxCell id="P6yEo5nzX-D7H8GDg3fG-49" value="Association" style="edgeLabel;html=1;align=center;verticalAlign=middle;resizable=0;points=[];rounded=0;shadow=0;comic=0;strokeColor=default;strokeWidth=1;fontFamily=Verdana;fontSize=10;fontColor=default;labelBackgroundColor=none;fillColor=default;" vertex="1" connectable="0" parent="P6yEo5nzX-D7H8GDg3fG-48">
          <mxGeometry x="-0.0347" y="-2" relative="1" as="geometry">
            <mxPoint x="28" y="9" as="offset" />
          </mxGeometry>
        </mxCell>
        <mxCell id="P6yEo5nzX-D7H8GDg3fG-52" value="History" style="swimlane;html=1;fontStyle=0;childLayout=stackLayout;horizontal=1;startSize=26;fillColor=none;horizontalStack=0;resizeParent=1;resizeLast=0;collapsible=1;marginBottom=0;swimlaneFillColor=#ffffff;rounded=0;shadow=0;comic=0;labelBackgroundColor=none;strokeWidth=1;fontFamily=Verdana;fontSize=10;align=center;" vertex="1" parent="1">
          <mxGeometry x="620" y="700" width="190" height="120" as="geometry" />
        </mxCell>
        <mxCell id="P6yEo5nzX-D7H8GDg3fG-53" value="+ id : UUID&lt;div&gt;+ uploadedFiles : List&amp;lt;UploadedFile&amp;gt;&lt;/div&gt;" style="text;html=1;strokeColor=none;fillColor=none;align=left;verticalAlign=top;spacingLeft=4;spacingRight=4;whiteSpace=wrap;overflow=hidden;rotatable=0;points=[[0,0.5],[1,0.5]];portConstraint=eastwest;" vertex="1" parent="P6yEo5nzX-D7H8GDg3fG-52">
          <mxGeometry y="26" width="190" height="54" as="geometry" />
        </mxCell>
        <mxCell id="P6yEo5nzX-D7H8GDg3fG-54" value="SharedLink" style="swimlane;html=1;fontStyle=0;childLayout=stackLayout;horizontal=1;startSize=26;fillColor=none;horizontalStack=0;resizeParent=1;resizeLast=0;collapsible=1;marginBottom=0;swimlaneFillColor=#ffffff;rounded=0;shadow=0;comic=0;labelBackgroundColor=none;strokeWidth=1;fontFamily=Verdana;fontSize=10;align=center;" vertex="1" parent="1">
          <mxGeometry x="300" y="770" width="190" height="120" as="geometry" />
        </mxCell>
        <mxCell id="P6yEo5nzX-D7H8GDg3fG-55" value="+ id : UUID&lt;div&gt;+ document : Document&lt;/div&gt;&lt;div&gt;+ linkToken : String&lt;/div&gt;&lt;div&gt;+ createdAt : LocalDateTime&lt;/div&gt;&lt;div&gt;+ expireAt : LocalDateTime&lt;/div&gt;" style="text;html=1;strokeColor=none;fillColor=none;align=left;verticalAlign=top;spacingLeft=4;spacingRight=4;whiteSpace=wrap;overflow=hidden;rotatable=0;points=[[0,0.5],[1,0.5]];portConstraint=eastwest;" vertex="1" parent="P6yEo5nzX-D7H8GDg3fG-54">
          <mxGeometry y="26" width="190" height="84" as="geometry" />
        </mxCell>
      </root>
    </mxGraphModel>
  </diagram>
</mxfile>
